<svg xmlns="http://www.w3.org/2000/svg" width="32" height="48" viewBox="0 0 32 48">
  <g id="arrow" transform="translate(7960)" fill="#f7e242">
    <path d="M -7944 47.24361801147461 L -7958.8935546875 30.33819007873535 L -7950.109375 30.33819007873535 L -7949.609375 30.33819007873535 L -7949.609375 29.83819007873535 L -7949.609375 0.5 L -7938.97265625 0.5 L -7938.97265625 29.83819007873535 L -7938.97265625 30.33819007873535 L -7938.47265625 30.33819007873535 L -7929.107421875 30.33819007873535 L -7944 47.24361801147461 Z" stroke="none"/>
    <path d="M -7944 46.48722839355469 L -7930.21435546875 30.83819007873535 L -7938.47265625 30.83819007873535 L -7939.47265625 30.83819007873535 L -7939.47265625 29.83819007873535 L -7939.47265625 1 L -7949.109375 1 L -7949.109375 29.83819007873535 L -7949.109375 30.83819007873535 L -7950.109375 30.83819007873535 L -7957.78662109375 30.83819007873535 L -7944 46.48722839355469 M -7944 48 L -7960.00048828125 29.83819007873535 L -7950.109375 29.83819007873535 L -7950.109375 -3.552713678800501e-15 L -7938.47265625 -3.552713678800501e-15 L -7938.47265625 29.83819007873535 L -7928.00048828125 29.83819007873535 L -7944 48 Z" stroke="none" fill="#707070"/>
  </g>
</svg>
